<svg version="1.1" viewBox="0.0 0.0 960.0 598.1811023622047" fill="none" stroke="none" stroke-linecap="square" stroke-miterlimit="10" xmlns:xlink="http://www.w3.org/1999/xlink" xmlns="http://www.w3.org/2000/svg"><clipPath id="p.0"><path d="m0 0l960.0 0l0 598.1811l-960.0 0l0 -598.1811z" clip-rule="nonzero"/></clipPath><g clip-path="url(#p.0)"><path fill="#000000" fill-opacity="0.0" d="m0 0l960.0 0l0 598.1811l-960.0 0z" fill-rule="evenodd"/><path fill="#93c47d" d="m30.91076 30.503937l432.7244 0l0 420.0l-432.7244 0z" fill-rule="evenodd"/><path stroke="#000000" stroke-width="1.0" stroke-linejoin="round" stroke-linecap="butt" d="m30.91076 30.503937l432.7244 0l0 420.0l-432.7244 0z" fill-rule="evenodd"/><path fill="#000000" d="m44.660763 44.15831l3.40625 9.625l3.390625 -9.625l3.59375 0l0 13.265625l-2.75 0l0 -3.625l0.28125 -6.265625l-3.578125 9.890625l-1.875 0l-3.578125 -9.875l0.28125 6.25l0 3.625l-2.734375 0l0 -13.265625l3.5625 0zm18.311188 13.265625q-0.171875 -0.359375 -0.265625 -0.890625q-0.953125 1.078125 -2.484375 1.078125q-1.453125 0 -2.40625 -0.84375q-0.9375 -0.84375 -0.9375 -2.109375q0 -1.578125 1.15625 -2.40625q1.15625 -0.84375 3.359375 -0.84375l1.203125 0l0 -0.578125q0 -0.671875 -0.359375 -1.078125q-0.34375 -0.421875 -1.09375 -0.421875q-0.65625 0 -1.046875 0.328125q-0.375 0.3125 -0.375 0.875l-2.625 0q0 -0.859375 0.515625 -1.578125q0.53125 -0.734375 1.5 -1.140625q0.96875 -0.421875 2.171875 -0.421875q1.8125 0 2.8749962 0.921875q1.078125 0.90625 1.078125 2.5625l0 4.265625q0.015625 1.40625 0.390625 2.125l0 0.15625l-2.6562462 0zm-2.171875 -1.828125q0.578125 0 1.0625 -0.25q0.5 -0.265625 0.734375 -0.703125l0 -1.703125l-0.984375 0q-1.96875 0 -2.09375 1.375l-0.015625 0.15625q0 0.484375 0.34375 0.8125q0.34375 0.3125 0.953125 0.3125zm11.799099 -0.890625q0 -0.484375 -0.484375 -0.765625q-0.46875 -0.28125 -1.515625 -0.5q-3.53125 -0.734375 -3.53125 -2.984375q0 -1.3125 1.09375 -2.1875q1.09375 -0.875 2.84375 -0.875q1.875 0 3.0 0.890625q1.125 0.875 1.125 2.28125l-2.625 0q0 -0.5625 -0.375 -0.921875q-0.359375 -0.375 -1.125 -0.375q-0.671875 0 -1.03125 0.296875q-0.359375 0.296875 -0.359375 0.765625q0 0.4375 0.40625 0.703125q0.421875 0.265625 1.40625 0.46875q0.984375 0.1875 1.65625 0.4375q2.078125 0.765625 2.078125 2.65625q0 1.34375 -1.15625 2.1875q-1.15625 0.828125 -2.984375 0.828125q-1.234375 0 -2.203125 -0.4375q-0.953125 -0.453125 -1.5 -1.21875q-0.546875 -0.765625 -0.546875 -1.671875l2.484375 0q0.046875 0.703125 0.53125 1.078125q0.484375 0.375 1.28125 0.375q0.765625 0 1.140625 -0.28125q0.390625 -0.296875 0.390625 -0.75zm7.4048004 -9.5625l0 2.421875l1.6875 0l0 1.9375l-1.6875 0l0 4.921875q0 0.546875 0.203125 0.78125q0.21875 0.234375 0.8125 0.234375q0.4375 0 0.78125 -0.0625l0 2.0q-0.78125 0.234375 -1.59375 0.234375q-2.78125 0 -2.828125 -2.796875l0 -5.3125l-1.4375 0l0 -1.9375l1.4375 0l0 -2.421875l2.625 0zm7.694397 12.46875q-2.171875 0 -3.53125 -1.328125q-1.359375 -1.34375 -1.359375 -3.546875l0 -0.265625q0 -1.484375 0.5625 -2.640625q0.578125 -1.171875 1.625 -1.796875q1.0625 -0.640625 2.40625 -0.640625q2.03125 0 3.1875 1.28125q1.15625 1.265625 1.15625 3.609375l0 1.0625l-6.265625 0q0.125 0.96875 0.765625 1.5625q0.640625 0.578125 1.625 0.578125q1.515625 0 2.375 -1.109375l1.296875 1.453125q-0.59375 0.84375 -1.609375 1.3125q-1.0 0.46875 -2.234375 0.46875zm-0.296875 -8.09375q-0.78125 0 -1.28125 0.53125q-0.484375 0.53125 -0.609375 1.515625l3.65625 0l0 -0.21875q-0.015625 -0.875 -0.484375 -1.34375q-0.453125 -0.484375 -1.28125 -0.484375zm11.381088 0.515625q-0.53125 -0.0625 -0.9375 -0.0625q-1.5 0 -1.96875 1.0l0 6.453125l-2.625 0l0 -9.859375l2.484375 0l0.078125 1.171875q0.78125 -1.34375 2.1875 -1.34375q0.4375 0 0.828125 0.109375l-0.046875 2.53125z" fill-rule="nonzero"/><path fill="#6d9eeb" d="m45.446194 68.28084l403.65353 0l0 40.91339l-403.65353 0z" fill-rule="evenodd"/><path stroke="#000000" stroke-width="1.0" stroke-linejoin="round" stroke-linecap="butt" d="m45.446194 68.28084l403.65353 0l0 40.91339l-403.65353 0z" fill-rule="evenodd"/><path fill="#ffffff" d="m220.85062 82.39191l2.734375 0l0 9.1875q0 1.265625 -0.5625 2.234375q-0.5625 0.96875 -1.578125 1.5q-1.015625 0.53125 -2.3125 0.53125q-2.09375 0 -3.28125 -1.0625q-1.171875 -1.078125 -1.171875 -3.046875l2.75 0q0 0.984375 0.40625 1.453125q0.421875 0.453125 1.296875 0.453125q0.796875 0 1.25 -0.53125q0.46875 -0.546875 0.46875 -1.53125l0 -9.1875zm9.43689 13.453125q-2.171875 0 -3.53125 -1.328125q-1.359375 -1.34375 -1.359375 -3.546875l0 -0.265625q0 -1.484375 0.5625 -2.640625q0.578125 -1.171875 1.625 -1.796875q1.0625 -0.640625 2.40625 -0.640625q2.03125 0 3.1875 1.28125q1.15625 1.265625 1.15625 3.609375l0 1.0625l-6.265625 0q0.125 0.96875 0.765625 1.5625q0.640625 0.578125 1.625 0.578125q1.515625 0 2.375 -1.109375l1.296875 1.453125q-0.59375 0.84375 -1.609375 1.3125q-1.0 0.46875 -2.234375 0.46875zm-0.296875 -8.09375q-0.78125 0 -1.28125 0.53125q-0.484375 0.53125 -0.609375 1.515625l3.65625 0l0 -0.21875q-0.015625 -0.875 -0.484375 -1.34375q-0.453125 -0.484375 -1.28125 -0.484375zm8.271713 -1.953125l0.078125 1.140625q1.0625 -1.3125 2.828125 -1.3125q1.578125 0 2.34375 0.921875q0.765625 0.90625 0.78125 2.734375l0 6.375l-2.640625 0l0 -6.296875q0 -0.84375 -0.359375 -1.21875q-0.359375 -0.375 -1.21875 -0.375q-1.109375 0 -1.65625 0.9375l0 6.953125l-2.640625 0l0 -9.859375l2.484375 0zm11.604843 5.90625l-0.953125 0.953125l0 3.0l-2.625 0l0 -14.0l2.625 0l0 7.765625l0.515625 -0.65625l2.515625 -2.96875l3.171875 0l-3.5625 4.109375l3.859375 5.75l-3.015625 0l-2.53125 -3.953125zm9.168915 3.953125l-2.65625 0l0 -9.859375l2.65625 0l0 9.859375zm-2.796875 -12.40625q0 -0.59375 0.390625 -0.96875q0.390625 -0.390625 1.078125 -0.390625q0.671875 0 1.0625 0.390625q0.40625 0.375 0.40625 0.96875q0 0.59375 -0.40625 0.984375q-0.390625 0.375 -1.0625 0.375q-0.671875 0 -1.078125 -0.375q-0.390625 -0.390625 -0.390625 -0.984375zm7.3839417 2.546875l0.078125 1.140625q1.0625 -1.3125 2.828125 -1.3125q1.578125 0 2.34375 0.921875q0.765625 0.90625 0.78125 2.734375l0 6.375l-2.640625 0l0 -6.296875q0 -0.84375 -0.359375 -1.21875q-0.359375 -0.375 -1.21875 -0.375q-1.109375 0 -1.65625 0.9375l0 6.953125l-2.640625 0l0 -9.859375l2.484375 0zm13.354858 7.140625q0 -0.484375 -0.484375 -0.765625q-0.46875 -0.28125 -1.515625 -0.5q-3.53125 -0.734375 -3.53125 -2.984375q0 -1.3125 1.09375 -2.1875q1.09375 -0.875 2.84375 -0.875q1.875 0 3.0 0.890625q1.125 0.875 1.125 2.28125l-2.625 0q0 -0.5625 -0.375 -0.921875q-0.359375 -0.375 -1.125 -0.375q-0.671875 0 -1.03125 0.296875q-0.359375 0.296875 -0.359375 0.765625q0 0.4375 0.40625 0.703125q0.421875 0.265625 1.40625 0.46875q0.984375 0.1875 1.65625 0.4375q2.078125 0.765625 2.078125 2.65625q0 1.34375 -1.15625 2.1875q-1.15625 0.828125 -2.984375 0.828125q-1.234375 0 -2.203125 -0.4375q-0.953125 -0.453125 -1.5 -1.21875q-0.546875 -0.765625 -0.546875 -1.671875l2.484375 0q0.046875 0.703125 0.53125 1.078125q0.484375 0.375 1.28125 0.375q0.765625 0 1.140625 -0.28125q0.390625 -0.296875 0.390625 -0.75z" fill-rule="nonzero"/><path fill="#6d9eeb" d="m45.446194 109.19423l403.65353 0l0 40.913376l-403.65353 0z" fill-rule="evenodd"/><path stroke="#000000" stroke-width="1.0" stroke-linejoin="round" stroke-linecap="butt" d="m45.446194 109.19423l403.65353 0l0 40.913376l-403.65353 0z" fill-rule="evenodd"/><path fill="#ffffff" d="m179.58545 133.08655q0 -0.765625 -0.546875 -1.171875q-0.546875 -0.421875 -1.96875 -0.875q-1.421875 -0.46875 -2.25 -0.921875q-2.2656403 -1.21875 -2.2656403 -3.2812576q0 -1.078125 0.609375 -1.921875q0.60939026 -0.84375 1.7343903 -1.3125q1.140625 -0.484375 2.5625 -0.484375q1.40625 0 2.515625 0.515625q1.125 0.515625 1.734375 1.453125q0.609375 0.9375 0.609375 2.140625l-2.71875 0q0 -0.90625 -0.578125 -1.40625q-0.578125 -0.515625 -1.609375 -0.515625q-1.015625 0 -1.578125 0.421875q-0.546875 0.421875 -0.546875 1.109375q0 0.65625 0.65625 1.09375q0.65625 0.43750763 1.921875 0.8125076q2.328125 0.703125 3.390625 1.75q1.0625 1.03125 1.0625 2.578125q0 1.71875 -1.296875 2.703125q-1.296875 0.984375 -3.5 0.984375q-1.53125 0 -2.796875 -0.5625q-1.25 -0.5625 -1.9218903 -1.53125q-0.65625 -0.984375 -0.65625 -2.265625l2.7500153 0q0 2.1875 2.625 2.1875q0.96875 0 1.515625 -0.390625q0.546875 -0.390625 0.546875 -1.109375zm4.0000916 -1.53125q0 -1.46875 0.5625 -2.609375q0.578125 -1.1562576 1.640625 -1.7812576q1.0625 -0.625 2.453125 -0.625q2.0 0 3.265625 1.21875q1.265625 1.2187576 1.40625 3.3125076l0.015625 0.671875q0 2.265625 -1.265625 3.640625q-1.265625 1.375 -3.40625 1.375q-2.125 0 -3.40625 -1.359375q-1.265625 -1.375 -1.265625 -3.734375l0 -0.109375zm2.640625 0.1875q0 1.40625 0.53125 2.15625q0.53125 0.734375 1.515625 0.734375q0.953125 0 1.484375 -0.734375q0.546875 -0.734375 0.546875 -2.34375q0 -1.375 -0.546875 -2.125q-0.53125 -0.765625 -1.515625 -0.765625q-0.953125 0 -1.484375 0.75q-0.53125 0.75 -0.53125 2.328125zm10.751923 -5.0312576l0.078125 1.140625q1.0625 -1.3125 2.828125 -1.3125q1.578125 0 2.34375 0.921875q0.765625 0.9062576 0.78125 2.7343826l0 6.375l-2.640625 0l0 -6.296875q0 -0.84375 -0.359375 -1.21875q-0.359375 -0.375 -1.21875 -0.375q-1.109375 0 -1.65625 0.9375l0 6.953125l-2.640625 0l0 -9.859383l2.484375 0zm13.729858 9.859383q-0.171875 -0.359375 -0.265625 -0.890625q-0.953125 1.078125 -2.484375 1.078125q-1.453125 0 -2.40625 -0.84375q-0.9375 -0.84375 -0.9375 -2.109375q0 -1.578125 1.15625 -2.40625q1.15625 -0.84375 3.359375 -0.84375l1.203125 0l0 -0.578125q0 -0.671875 -0.359375 -1.078125q-0.34375 -0.421875 -1.09375 -0.421875q-0.65625 0 -1.046875 0.328125q-0.375 0.3125 -0.375 0.875l-2.625 0q0 -0.859375 0.515625 -1.578125q0.53125 -0.7343826 1.5 -1.1406326q0.96875 -0.421875 2.171875 -0.421875q1.8125 0 2.875 0.921875q1.078125 0.9062576 1.078125 2.5625076l0 4.265625q0.015625 1.40625 0.390625 2.125l0 0.15625l-2.65625 0zm-2.171875 -1.828125q0.578125 0 1.0625 -0.25q0.5 -0.265625 0.734375 -0.703125l0 -1.703125l-0.984375 0q-1.96875 0 -2.09375 1.375l-0.015625 0.15625q0 0.484375 0.34375 0.8125q0.34375 0.3125 0.953125 0.3125zm9.611603 -10.453133l0 2.421875l1.6875 0l0 1.9375076l-1.6875 0l0 4.921875q0 0.546875 0.203125 0.78125q0.21875 0.234375 0.8125 0.234375q0.4375 0 0.78125 -0.0625l0 2.0q-0.78125 0.234375 -1.59375 0.234375q-2.78125 0 -2.828125 -2.796875l0 -5.3125l-1.4375 0l0 -1.9375076l1.4375 0l0 -2.421875l2.625 0zm6.835022 8.562508l1.828125 -6.1406326l2.828125 0l-3.96875 11.390633l-0.21875 0.515625q-0.890625 1.9375 -2.921875 1.9375q-0.5625 0 -1.15625 -0.171875l0 -2.0l0.390625 0.015625q0.75 0 1.109375 -0.234375q0.375 -0.234375 0.59375 -0.75l0.3125 -0.8125l-3.453125 -9.890633l2.828125 0l1.828125 6.1406326zm14.567688 -1.125q0 2.28125 -1.046875 3.65625q-1.03125 1.375 -2.78125 1.375q-1.5 0 -2.421875 -1.046875l0 4.65625l-2.625 0l0 -13.656258l2.4375 0l0.09375 0.96875q0.953125 -1.140625 2.5 -1.140625q1.8125 0 2.828125 1.34375q1.015625 1.3437576 1.015625 3.7187576l0 0.125zm-2.640625 -0.1875q0 -1.375 -0.484375 -2.109375q-0.484375 -0.75 -1.421875 -0.75q-1.234375 0 -1.703125 0.9375l0 4.03125q0.484375 0.984375 1.71875 0.984375q1.890625 0 1.890625 -3.09375zm8.80011 5.21875q-2.171875 0 -3.53125 -1.328125q-1.359375 -1.34375 -1.359375 -3.546875l0 -0.265625q0 -1.484375 0.5625 -2.640625q0.578125 -1.1718826 1.625 -1.7968826q1.0625 -0.640625 2.40625 -0.640625q2.03125 0 3.1875 1.28125q1.15625 1.2656326 1.15625 3.6093826l0 1.0625l-6.265625 0q0.125 0.96875 0.765625 1.5625q0.640625 0.578125 1.625 0.578125q1.515625 0 2.375 -1.109375l1.296875 1.453125q-0.59375 0.84375 -1.609375 1.3125q-1.0 0.46875 -2.234375 0.46875zm-0.296875 -8.09375q-0.78125 0 -1.28125 0.53125q-0.484375 0.53125 -0.609375 1.515625l3.65625 0l0 -0.21875q-0.015625 -0.875 -0.484375 -1.34375q-0.453125 -0.484375 -1.28125 -0.484375zm21.448822 7.90625l-2.734375 0l-5.3125 -8.734383l0 8.734383l-2.734375 0l0 -13.265633l2.734375 0l5.328125 8.750008l0 -8.750008l2.71875 0l0 13.265633zm6.750458 0.1875q-2.171875 0 -3.53125 -1.328125q-1.359375 -1.34375 -1.359375 -3.546875l0 -0.265625q0 -1.484375 0.5625 -2.640625q0.578125 -1.1718826 1.625 -1.7968826q1.0625 -0.640625 2.40625 -0.640625q2.03125 0 3.1875 1.28125q1.15625 1.2656326 1.15625 3.6093826l0 1.0625l-6.265625 0q0.125 0.96875 0.765625 1.5625q0.640625 0.578125 1.625 0.578125q1.515625 0 2.375 -1.109375l1.296875 1.453125q-0.59375 0.84375 -1.609375 1.3125q-1.0 0.46875 -2.234375 0.46875zm-0.296875 -8.09375q-0.78125 0 -1.28125 0.53125q-0.484375 0.53125 -0.609375 1.515625l3.65625 0l0 -0.21875q-0.015625 -0.875 -0.484375 -1.34375q-0.453125 -0.484375 -1.28125 -0.484375zm9.599823 0.984375l1.65625 -2.9375076l2.8125 0l-2.796875 4.8281326l2.921875 5.03125l-2.828125 0l-1.765625 -3.09375l-1.734375 3.09375l-2.84375 0l2.921875 -5.03125l-2.796875 -4.8281326l2.828125 0l1.625 2.9375076zm11.648346 5.921875q-0.984375 1.1875 -2.703125 1.1875q-1.59375 0 -2.421875 -0.90625q-0.828125 -0.921875 -0.84375 -2.671875l0 -6.4687576l2.625 0l0 6.3750076q0 1.53125 1.40625 1.53125q1.34375 0 1.84375 -0.921875l0 -6.9843826l2.640625 0l0 9.859383l-2.484375 0l-0.0625 -1.0zm9.861359 -1.71875q0 -0.484375 -0.484375 -0.765625q-0.46875 -0.28125 -1.515625 -0.5q-3.53125 -0.734375 -3.53125 -2.984375q0 -1.3125 1.09375 -2.1875076q1.09375 -0.875 2.84375 -0.875q1.875 0 3.0 0.890625q1.125 0.8750076 1.125 2.2812576l-2.625 0q0 -0.5625 -0.375 -0.921875q-0.359375 -0.375 -1.125 -0.375q-0.671875 0 -1.03125 0.296875q-0.359375 0.296875 -0.359375 0.765625q0 0.4375 0.40625 0.703125q0.421875 0.265625 1.40625 0.46875q0.984375 0.1875 1.65625 0.4375q2.078125 0.765625 2.078125 2.65625q0 1.34375 -1.15625 2.1875q-1.15625 0.828125 -2.984375 0.828125q-1.234375 0 -2.203125 -0.4375q-0.953125 -0.453125 -1.5 -1.21875q-0.546875 -0.765625 -0.546875 -1.671875l2.484375 0q0.046875 0.703125 0.53125 1.078125q0.484375 0.375 1.28125 0.375q0.765625 0 1.140625 -0.28125q0.390625 -0.296875 0.390625 -0.75zm11.472534 -5.078125l1.40625 0q1.0 0 1.484375 -0.5q0.484375 -0.5000076 0.484375 -1.3281326q0 -0.8125 -0.484375 -1.25q-0.46875 -0.453125 -1.3125 -0.453125q-0.75 0 -1.265625 0.421875q-0.515625 0.40625 -0.515625 1.078125l-2.625 0q0 -1.046875 0.5625 -1.859375q0.5625 -0.828125 1.5625 -1.296875q1.0 -0.46875 2.21875 -0.46875q2.109375 0 3.296875 1.015625q1.1875 1.0 1.1875 2.765625q0 0.921875 -0.5625 1.6875076q-0.546875 0.765625 -1.453125 1.171875q1.125 0.40625 1.671875 1.203125q0.5625 0.796875 0.5625 1.890625q0 1.765625 -1.296875 2.84375q-1.28125 1.0625 -3.40625 1.0625q-1.984375 0 -3.25 -1.046875q-1.265625 -1.046875 -1.265625 -2.78125l2.640625 0q0 0.75 0.5625 1.234375q0.5625 0.46875 1.375 0.46875q0.9375 0 1.46875 -0.5q0.53125 -0.5 0.53125 -1.3125q0 -1.984375 -2.1875 -1.984375l-1.390625 0l0 -2.0625z" fill-rule="nonzero"/><path fill="#ffd966" d="m45.446194 313.76117l403.65353 0l0 40.91336l-403.65353 0z" fill-rule="evenodd"/><path stroke="#000000" stroke-width="1.0" stroke-linejoin="round" stroke-linecap="butt" d="m45.446194 313.76117l403.65353 0l0 40.91336l-403.65353 0z" fill-rule="evenodd"/><path fill="#000000" d="m176.94022 336.13785q0 -2.3125 1.03125 -3.671875q1.046875 -1.359375 2.84375 -1.359375q1.4375 0 2.375 1.0625l0 -5.03125l2.640625 0l0 14.0l-2.375 0l-0.125 -1.046875q-0.984375 1.234375 -2.53125 1.234375q-1.75 0 -2.8125 -1.375q-1.046875 -1.375 -1.046875 -3.8125zm2.640625 0.1875q0 1.390625 0.484375 2.125q0.484375 0.734375 1.40625 0.734375q1.21875 0 1.71875 -1.03125l0 -3.890625q-0.5 -1.015625 -1.703125 -1.015625q-1.90625 0 -1.90625 3.078125zm7.8717346 -0.203125q0 -1.46875 0.5625 -2.609375q0.578125 -1.15625 1.640625 -1.78125q1.0625 -0.625 2.453125 -0.625q2.0 0 3.265625 1.21875q1.265625 1.21875 1.40625 3.3125l0.015625 0.671875q0 2.265625 -1.265625 3.640625q-1.265625 1.375 -3.40625 1.375q-2.125 0 -3.40625 -1.359375q-1.265625 -1.375 -1.265625 -3.734375l0 -0.109375zm2.640625 0.1875q0 1.40625 0.53125 2.15625q0.53125 0.734375 1.515625 0.734375q0.953125 0 1.484375 -0.734375q0.546875 -0.734375 0.546875 -2.34375q0 -1.375 -0.546875 -2.125q-0.53125 -0.765625 -1.515625 -0.765625q-0.953125 0 -1.484375 0.75q-0.53125 0.75 -0.53125 2.328125zm12.423798 2.890625q0.734375 0 1.1875 -0.390625q0.453125 -0.40625 0.46875 -1.078125l2.46875 0q0 1.0 -0.546875 1.84375q-0.53125 0.828125 -1.46875 1.296875q-0.9375 0.453125 -2.0625 0.453125q-2.109375 0 -3.34375 -1.34375q-1.21875 -1.34375 -1.21875 -3.71875l0 -0.171875q0 -2.28125 1.21875 -3.625q1.21875 -1.359375 3.328125 -1.359375q1.84375 0 2.953125 1.046875q1.125 1.046875 1.140625 2.796875l-2.46875 0q-0.015625 -0.765625 -0.46875 -1.234375q-0.453125 -0.484375 -1.203125 -0.484375q-0.921875 0 -1.390625 0.671875q-0.46875 0.671875 -0.46875 2.171875l0 0.265625q0 1.53125 0.453125 2.203125q0.46875 0.65625 1.421875 0.65625zm9.213318 -2.015625l-0.953125 0.953125l0 3.0l-2.625 0l0 -14.0l2.625 0l0 7.765625l0.515625 -0.65625l2.515625 -2.96875l3.171875 0l-3.5625 4.109375l3.859375 5.75l-3.015625 0l-2.53125 -3.953125zm10.736618 4.140625q-2.171875 0 -3.53125 -1.328125q-1.359375 -1.34375 -1.359375 -3.546875l0 -0.265625q0 -1.484375 0.5625 -2.640625q0.578125 -1.171875 1.625 -1.796875q1.0625 -0.640625 2.40625 -0.640625q2.03125 0 3.1875 1.28125q1.15625 1.265625 1.15625 3.609375l0 1.0625l-6.265625 0q0.125 0.96875 0.765625 1.5625q0.640625 0.578125 1.625 0.578125q1.515625 0 2.375 -1.109375l1.296875 1.453125q-0.59375 0.84375 -1.609375 1.3125q-1.0 0.46875 -2.234375 0.46875zm-0.296875 -8.09375q-0.78125 0 -1.28125 0.53125q-0.484375 0.53125 -0.609375 1.515625l3.65625 0l0 -0.21875q-0.015625 -0.875 -0.484375 -1.34375q-0.453125 -0.484375 -1.28125 -0.484375zm11.381088 0.515625q-0.53125 -0.0625 -0.9375 -0.0625q-1.5 0 -1.96875 1.0l0 6.453125l-2.625 0l0 -9.859375l2.484375 0l0.078125 1.171875q0.78125 -1.34375 2.1875 -1.34375q0.4375 0 0.828125 0.109375l-0.046875 2.53125zm6.3829193 2.765625l-5.125 0l0 -2.109375l5.125 0l0 2.109375zm6.2173157 2.6875q0.734375 0 1.1875 -0.390625q0.453125 -0.40625 0.46875 -1.078125l2.46875 0q0 1.0 -0.546875 1.84375q-0.53125 0.828125 -1.46875 1.296875q-0.9375 0.453125 -2.0625 0.453125q-2.109375 0 -3.34375 -1.34375q-1.21875 -1.34375 -1.21875 -3.71875l0 -0.171875q0 -2.28125 1.21875 -3.625q1.21875 -1.359375 3.328125 -1.359375q1.84375 0 2.953125 1.046875q1.125 1.046875 1.140625 2.796875l-2.46875 0q-0.015625 -0.765625 -0.46875 -1.234375q-0.453125 -0.484375 -1.203125 -0.484375q-0.921875 0 -1.390625 0.671875q-0.46875 0.671875 -0.46875 2.171875l0 0.265625q0 1.53125 0.453125 2.203125q0.46875 0.65625 1.421875 0.65625zm5.213318 -3.078125q0 -1.46875 0.5625 -2.609375q0.578125 -1.15625 1.640625 -1.78125q1.0625 -0.625 2.4531097 -0.625q2.0 0 3.265625 1.21875q1.265625 1.21875 1.40625 3.3125l0.015625 0.671875q0 2.265625 -1.265625 3.640625q-1.265625 1.375 -3.40625 1.375q-2.1249847 0 -3.4062347 -1.359375q-1.265625 -1.375 -1.265625 -3.734375l0 -0.109375zm2.640625 0.1875q0 1.40625 0.53125 2.15625q0.53125 0.734375 1.5156097 0.734375q0.953125 0 1.484375 -0.734375q0.546875 -0.734375 0.546875 -2.34375q0 -1.375 -0.546875 -2.125q-0.53125 -0.765625 -1.515625 -0.765625q-0.95310974 0 -1.4843597 0.75q-0.53125 0.75 -0.53125 2.328125zm10.798782 -5.03125l0.078125 1.109375q1.046875 -1.28125 2.828125 -1.28125q1.90625 0 2.625 1.5q1.03125 -1.5 2.953125 -1.5q1.609375 0 2.390625 0.9375q0.78125 0.921875 0.78125 2.796875l0 6.296875l-2.640625 0l0 -6.28125q0 -0.84375 -0.328125 -1.21875q-0.328125 -0.390625 -1.15625 -0.390625q-1.1875 0 -1.640625 1.125l0 6.765625l-2.625 0l0 -6.28125q0 -0.84375 -0.34375 -1.21875q-0.328125 -0.390625 -1.140625 -0.390625q-1.125 0 -1.625 0.921875l0 6.96875l-2.625 0l0 -9.859375l2.46875 0zm22.557404 5.015625q0 2.28125 -1.046875 3.65625q-1.03125 1.375 -2.78125 1.375q-1.5 0 -2.421875 -1.046875l0 4.65625l-2.625 0l0 -13.65625l2.4375 0l0.09375 0.96875q0.953125 -1.140625 2.5 -1.140625q1.8125 0 2.828125 1.34375q1.015625 1.34375 1.015625 3.71875l0 0.125zm-2.640625 -0.1875q0 -1.375 -0.484375 -2.109375q-0.484375 -0.75 -1.421875 -0.75q-1.234375 0 -1.703125 0.9375l0 4.03125q0.484375 0.984375 1.71875 0.984375q1.890625 0 1.890625 -3.09375zm3.8469849 0.015625q0 -1.46875 0.5625 -2.609375q0.578125 -1.15625 1.640625 -1.78125q1.0625 -0.625 2.453125 -0.625q2.0 0 3.265625 1.21875q1.265625 1.21875 1.40625 3.3125l0.015625 0.671875q0 2.265625 -1.265625 3.640625q-1.265625 1.375 -3.40625 1.375q-2.125 0 -3.40625 -1.359375q-1.265625 -1.375 -1.265625 -3.734375l0 -0.109375zm2.640625 0.1875q0 1.40625 0.53125 2.15625q0.53125 0.734375 1.515625 0.734375q0.953125 0 1.484375 -0.734375q0.546875 -0.734375 0.546875 -2.34375q0 -1.375 -0.546875 -2.125q-0.53125 -0.765625 -1.515625 -0.765625q-0.953125 0 -1.484375 0.75q-0.53125 0.75 -0.53125 2.328125zm13.658173 2.109375q0 -0.484375 -0.484375 -0.765625q-0.46875 -0.28125 -1.515625 -0.5q-3.53125 -0.734375 -3.53125 -2.984375q0 -1.3125 1.09375 -2.1875q1.09375 -0.875 2.84375 -0.875q1.875 0 3.0 0.890625q1.125 0.875 1.125 2.28125l-2.625 0q0 -0.5625 -0.375 -0.921875q-0.359375 -0.375 -1.125 -0.375q-0.671875 0 -1.03125 0.296875q-0.359375 0.296875 -0.359375 0.765625q0 0.4375 0.40625 0.703125q0.421875 0.265625 1.40625 0.46875q0.984375 0.1875 1.65625 0.4375q2.078125 0.765625 2.078125 2.65625q0 1.34375 -1.15625 2.1875q-1.15625 0.828125 -2.984375 0.828125q-1.234375 0 -2.203125 -0.4375q-0.953125 -0.453125 -1.5 -1.21875q-0.546875 -0.765625 -0.546875 -1.671875l2.484375 0q0.046875 0.703125 0.53125 1.078125q0.484375 0.375 1.28125 0.375q0.765625 0 1.140625 -0.28125q0.390625 -0.296875 0.390625 -0.75zm8.795441 2.90625q-2.171875 0 -3.53125 -1.328125q-1.359375 -1.34375 -1.359375 -3.546875l0 -0.265625q0 -1.484375 0.5625 -2.640625q0.578125 -1.171875 1.625 -1.796875q1.0625 -0.640625 2.40625 -0.640625q2.03125 0 3.1875 1.28125q1.15625 1.265625 1.15625 3.609375l0 1.0625l-6.265625 0q0.125 0.96875 0.765625 1.5625q0.640625 0.578125 1.625 0.578125q1.515625 0 2.375 -1.109375l1.296875 1.453125q-0.59375 0.84375 -1.609375 1.3125q-1.0 0.46875 -2.234375 0.46875zm-0.296875 -8.09375q-0.78125 0 -1.28125 0.53125q-0.484375 0.53125 -0.609375 1.515625l3.65625 0l0 -0.21875q-0.015625 -0.875 -0.484375 -1.34375q-0.453125 -0.484375 -1.28125 -0.484375z" fill-rule="nonzero"/><path fill="#ffd966" d="m45.446194 354.67453l403.65353 0l0 40.91339l-403.65353 0z" fill-rule="evenodd"/><path stroke="#000000" stroke-width="1.0" stroke-linejoin="round" stroke-linecap="butt" d="m45.446194 354.67453l403.65353 0l0 40.91339l-403.65353 0z" fill-rule="evenodd"/><path fill="#000000" d="m219.1354 377.05124q0 -2.3125 1.03125 -3.671875q1.046875 -1.359375 2.84375 -1.359375q1.4375 0 2.375 1.0625l0 -5.03125l2.640625 0l0 14.0l-2.375 0l-0.125 -1.046875q-0.984375 1.234375 -2.53125 1.234375q-1.75 0 -2.8125 -1.375q-1.046875 -1.375 -1.046875 -3.8125zm2.640625 0.1875q0 1.390625 0.484375 2.125q0.484375 0.734375 1.40625 0.734375q1.21875 0 1.71875 -1.03125l0 -3.890625q-0.5 -1.015625 -1.703125 -1.015625q-1.90625 0 -1.90625 3.078125zm7.8717346 -0.203125q0 -1.46875 0.5625 -2.609375q0.578125 -1.15625 1.640625 -1.78125q1.0625 -0.625 2.453125 -0.625q2.0 0 3.265625 1.21875q1.265625 1.21875 1.40625 3.3125l0.015625 0.671875q0 2.265625 -1.265625 3.640625q-1.265625 1.375 -3.40625 1.375q-2.125 0 -3.40625 -1.359375q-1.265625 -1.375 -1.265625 -3.734375l0 -0.109375zm2.640625 0.1875q0 1.40625 0.53125 2.15625q0.53125 0.734375 1.515625 0.734375q0.953125 0 1.484375 -0.734375q0.546875 -0.734375 0.546875 -2.34375q0 -1.375 -0.546875 -2.125q-0.53125 -0.765625 -1.515625 -0.765625q-0.953125 0 -1.484375 0.75q-0.53125 0.75 -0.53125 2.328125zm12.423798 2.890625q0.734375 0 1.1875 -0.390625q0.453125 -0.40625 0.46875 -1.078125l2.46875 0q0 1.0 -0.546875 1.84375q-0.53125 0.828125 -1.46875 1.296875q-0.9375 0.453125 -2.0625 0.453125q-2.109375 0 -3.34375 -1.34375q-1.21875 -1.34375 -1.21875 -3.71875l0 -0.171875q0 -2.28125 1.21875 -3.625q1.21875 -1.359375 3.328125 -1.359375q1.84375 0 2.953125 1.046875q1.125 1.046875 1.140625 2.796875l-2.46875 0q-0.015625 -0.765625 -0.46875 -1.234375q-0.453125 -0.484375 -1.203125 -0.484375q-0.921875 0 -1.390625 0.671875q-0.46875 0.671875 -0.46875 2.171875l0 0.265625q0 1.53125 0.453125 2.203125q0.46875 0.65625 1.421875 0.65625zm9.213318 -2.015625l-0.953125 0.953125l0 3.0l-2.625 0l0 -14.0l2.625 0l0 7.765625l0.515625 -0.65625l2.515625 -2.96875l3.171875 0l-3.5625 4.109375l3.859375 5.75l-3.015625 0l-2.53125 -3.953125zm10.736603 4.140625q-2.171875 0 -3.53125 -1.328125q-1.359375 -1.34375 -1.359375 -3.546875l0 -0.265625q0 -1.484375 0.5625 -2.640625q0.578125 -1.171875 1.625 -1.796875q1.0625 -0.640625 2.40625 -0.640625q2.03125 0 3.1875 1.28125q1.15625 1.265625 1.15625 3.609375l0 1.0625l-6.265625 0q0.125 0.96875 0.765625 1.5625q0.640625 0.578125 1.625 0.578125q1.515625 0 2.375 -1.109375l1.296875 1.453125q-0.59375 0.84375 -1.609375 1.3125q-1.0 0.46875 -2.234375 0.46875zm-0.296875 -8.09375q-0.78125 0 -1.28125 0.53125q-0.484375 0.53125 -0.609375 1.515625l3.65625 0l0 -0.21875q-0.015625 -0.875 -0.484375 -1.34375q-0.453125 -0.484375 -1.28125 -0.484375zm11.3811035 0.515625q-0.53125 -0.0625 -0.9375 -0.0625q-1.5 0 -1.96875 1.0l0 6.453125l-2.625 0l0 -9.859375l2.484375 0l0.078125 1.171875q0.78125 -1.34375 2.1875 -1.34375q0.4375 0 0.828125 0.109375l-0.046875 2.53125z" fill-rule="nonzero"/><path fill="#ffd966" d="m45.446194 395.58792l403.65353 0l0 40.91339l-403.65353 0z" fill-rule="evenodd"/><path stroke="#000000" stroke-width="1.0" stroke-linejoin="round" stroke-linecap="butt" d="m45.446194 395.58792l403.65353 0l0 40.91339l-403.65353 0z" fill-rule="evenodd"/><path fill="#000000" d="m223.72997 422.96463q-0.171875 -0.359375 -0.265625 -0.890625q-0.953125 1.078125 -2.484375 1.078125q-1.453125 0 -2.40625 -0.84375q-0.9375 -0.84375 -0.9375 -2.109375q0 -1.578125 1.15625 -2.40625q1.15625 -0.84375 3.359375 -0.84375l1.203125 0l0 -0.578125q0 -0.671875 -0.359375 -1.078125q-0.34375 -0.421875 -1.09375 -0.421875q-0.65625 0 -1.046875 0.328125q-0.375 0.3125 -0.375 0.875l-2.625 0q0 -0.859375 0.515625 -1.578125q0.53125 -0.734375 1.5 -1.140625q0.96875 -0.421875 2.171875 -0.421875q1.8125 0 2.875 0.921875q1.078125 0.90625 1.078125 2.5625l0 4.265625q0.015625 1.40625 0.390625 2.125l0 0.15625l-2.65625 0zm-2.171875 -1.828125q0.578125 0 1.0625 -0.25q0.5 -0.265625 0.734375 -0.703125l0 -1.703125l-0.984375 0q-1.96875 0 -2.09375 1.375l-0.015625 0.15625q0 0.484375 0.34375 0.8125q0.34375 0.3125 0.953125 0.3125zm8.892853 -8.03125l0.078125 1.140625q1.0625 -1.3125 2.828125 -1.3125q1.578125 0 2.34375 0.921875q0.765625 0.90625 0.78125 2.734375l0 6.375l-2.640625 0l0 -6.296875q0 -0.84375 -0.359375 -1.21875q-0.359375 -0.375 -1.21875 -0.375q-1.109375 0 -1.65625 0.9375l0 6.953125l-2.640625 0l0 -9.859375l2.484375 0zm13.354843 7.140625q0 -0.484375 -0.484375 -0.765625q-0.46875 -0.28125 -1.515625 -0.5q-3.53125 -0.734375 -3.53125 -2.984375q0 -1.3125 1.09375 -2.1875q1.09375 -0.875 2.84375 -0.875q1.875 0 3.0 0.890625q1.125 0.875 1.125 2.28125l-2.625 0q0 -0.5625 -0.375 -0.921875q-0.359375 -0.375 -1.125 -0.375q-0.671875 0 -1.03125 0.296875q-0.359375 0.296875 -0.359375 0.765625q0 0.4375 0.40625 0.703125q0.421875 0.265625 1.40625 0.46875q0.984375 0.1875 1.65625 0.4375q2.078125 0.765625 2.078125 2.65625q0 1.34375 -1.15625 2.1875q-1.15625 0.828125 -2.984375 0.828125q-1.234375 0 -2.203125 -0.4375q-0.953125 -0.453125 -1.5 -1.21875q-0.546875 -0.765625 -0.546875 -1.671875l2.484375 0q0.046875 0.703125 0.53125 1.078125q0.484375 0.375 1.28125 0.375q0.765625 0 1.140625 -0.28125q0.390625 -0.296875 0.390625 -0.75zm7.0454254 2.71875l-2.65625 0l0 -9.859375l2.65625 0l0 9.859375zm-2.796875 -12.40625q0 -0.59375 0.390625 -0.96875q0.390625 -0.390625 1.078125 -0.390625q0.671875 0 1.0625 0.390625q0.40625 0.375 0.40625 0.96875q0 0.59375 -0.40625 0.984375q-0.390625 0.375 -1.0625 0.375q-0.671875 0 -1.078125 -0.375q-0.390625 -0.390625 -0.390625 -0.984375zm13.837082 7.5625q0 2.375 -1.015625 3.703125q-1.0 1.328125 -2.8125 1.328125q-1.609375 0 -2.5625 -1.234375l-0.125 1.046875l-2.359375 0l0 -14.0l2.625 0l0 5.03125q0.921875 -1.0625 2.40625 -1.0625q1.796875 0 2.8125 1.328125q1.03125 1.3125 1.03125 3.71875l0 0.140625zm-2.625 -0.1875q0 -1.484375 -0.484375 -2.171875q-0.46875 -0.6875 -1.40625 -0.6875q-1.25 0 -1.734375 1.015625l0 3.890625q0.484375 1.046875 1.75 1.046875q1.28125 0 1.671875 -1.265625q0.203125 -0.59375 0.203125 -1.828125zm7.034485 5.03125l-2.65625 0l0 -14.0l2.65625 0l0 14.0zm6.696472 0.1875q-2.171875 0 -3.53125 -1.328125q-1.359375 -1.34375 -1.359375 -3.546875l0 -0.265625q0 -1.484375 0.5625 -2.640625q0.578125 -1.171875 1.625 -1.796875q1.0625 -0.640625 2.40625 -0.640625q2.03125 0 3.1875 1.28125q1.15625 1.265625 1.15625 3.609375l0 1.0625l-6.265625 0q0.125 0.96875 0.765625 1.5625q0.640625 0.578125 1.625 0.578125q1.515625 0 2.375 -1.109375l1.296875 1.453125q-0.59375 0.84375 -1.609375 1.3125q-1.0 0.46875 -2.234375 0.46875zm-0.296875 -8.09375q-0.78125 0 -1.28125 0.53125q-0.484375 0.53125 -0.609375 1.515625l3.65625 0l0 -0.21875q-0.015625 -0.875 -0.484375 -1.34375q-0.453125 -0.484375 -1.28125 -0.484375z" fill-rule="nonzero"/><path fill="#ffd966" d="m45.446194 272.84778l403.65353 0l0 40.91339l-403.65353 0z" fill-rule="evenodd"/><path stroke="#000000" stroke-width="1.0" stroke-linejoin="round" stroke-linecap="butt" d="m45.446194 272.84778l403.65353 0l0 40.91339l-403.65353 0z" fill-rule="evenodd"/><path fill="#000000" d="m201.57288 295.3807q0 2.28125 -1.046875 3.65625q-1.03125 1.375 -2.78125 1.375q-1.5 0 -2.421875 -1.046875l0 4.65625l-2.625 0l0 -13.65625l2.4375 0l0.09375 0.96875q0.953125 -1.140625 2.5 -1.140625q1.8125 0 2.828125 1.34375q1.015625 1.34375 1.015625 3.71875l0 0.125zm-2.640625 -0.1875q0 -1.375 -0.484375 -2.109375q-0.484375 -0.75 -1.421875 -0.75q-1.234375 0 -1.703125 0.9375l0 4.03125q0.484375 0.984375 1.71875 0.984375q1.890625 0 1.890625 -3.09375zm10.175125 4.03125q-0.984375 1.1875 -2.703125 1.1875q-1.59375 0 -2.421875 -0.90625q-0.828125 -0.921875 -0.84375 -2.671875l0 -6.46875l2.625 0l0 6.375q0 1.53125 1.40625 1.53125q1.34375 0 1.84375 -0.921875l0 -6.984375l2.640625 0l0 9.859375l-2.484375 0l-0.0625 -1.0zm13.408234 -3.84375q0 2.28125 -1.046875 3.65625q-1.03125 1.375 -2.78125 1.375q-1.5 0 -2.421875 -1.046875l0 4.65625l-2.625 0l0 -13.65625l2.4375 0l0.09375 0.96875q0.953125 -1.140625 2.5 -1.140625q1.8125 0 2.828125 1.34375q1.015625 1.34375 1.015625 3.71875l0 0.125zm-2.640625 -0.1875q0 -1.375 -0.484375 -2.109375q-0.484375 -0.75 -1.421875 -0.75q-1.234375 0 -1.703125 0.9375l0 4.03125q0.484375 0.984375 1.71875 0.984375q1.890625 0 1.890625 -3.09375zm13.143875 0.1875q0 2.28125 -1.046875 3.65625q-1.03125 1.375 -2.78125 1.375q-1.5 0 -2.421875 -1.046875l0 4.65625l-2.625 0l0 -13.65625l2.4375 0l0.09375 0.96875q0.953125 -1.140625 2.5 -1.140625q1.8125 0 2.828125 1.34375q1.015625 1.34375 1.015625 3.71875l0 0.125zm-2.640625 -0.1875q0 -1.375 -0.484375 -2.109375q-0.484375 -0.75 -1.421875 -0.75q-1.234375 0 -1.703125 0.9375l0 4.03125q0.484375 0.984375 1.71875 0.984375q1.890625 0 1.890625 -3.09375zm8.800125 5.21875q-2.171875 0 -3.53125 -1.328125q-1.359375 -1.34375 -1.359375 -3.546875l0 -0.265625q0 -1.484375 0.5625 -2.640625q0.578125 -1.171875 1.625 -1.796875q1.0625 -0.640625 2.40625 -0.640625q2.03125 0 3.1875 1.28125q1.15625 1.265625 1.15625 3.609375l0 1.0625l-6.265625 0q0.125 0.96875 0.765625 1.5625q0.640625 0.578125 1.625 0.578125q1.515625 0 2.375 -1.109375l1.296875 1.453125q-0.59375 0.84375 -1.609375 1.3125q-1.0 0.46875 -2.234375 0.46875zm-0.296875 -8.09375q-0.78125 0 -1.28125 0.53125q-0.484375 0.53125 -0.609375 1.515625l3.65625 0l0 -0.21875q-0.015625 -0.875 -0.484375 -1.34375q-0.453125 -0.484375 -1.28125 -0.484375zm8.990463 -4.375l0 2.421875l1.6875 0l0 1.9375l-1.6875 0l0 4.921875q0 0.546875 0.203125 0.78125q0.21875 0.234375 0.8125 0.234375q0.4375 0 0.78125 -0.0625l0 2.0q-0.78125 0.234375 -1.59375 0.234375q-2.78125 0 -2.828125 -2.796875l0 -5.3125l-1.4375 0l0 -1.9375l1.4375 0l0 -2.421875l2.625 0zm8.491272 9.5625q0 -0.484375 -0.484375 -0.765625q-0.46875 -0.28125 -1.515625 -0.5q-3.53125 -0.734375 -3.53125 -2.984375q0 -1.3125 1.09375 -2.1875q1.09375 -0.875 2.84375 -0.875q1.875 0 3.0 0.890625q1.125 0.875 1.125 2.28125l-2.625 0q0 -0.5625 -0.375 -0.921875q-0.359375 -0.375 -1.125 -0.375q-0.671875 0 -1.03125 0.296875q-0.359375 0.296875 -0.359375 0.765625q0 0.4375 0.40625 0.703125q0.421875 0.265625 1.40625 0.46875q0.984375 0.1875 1.65625 0.4375q2.078125 0.765625 2.078125 2.65625q0 1.34375 -1.15625 2.1875q-1.15625 0.828125 -2.984375 0.828125q-1.234375 0 -2.203125 -0.4375q-0.953125 -0.453125 -1.5 -1.21875q-0.546875 -0.765625 -0.546875 -1.671875l2.484375 0q0.046875 0.703125 0.53125 1.078125q0.484375 0.375 1.28125 0.375q0.765625 0 1.140625 -0.28125q0.390625 -0.296875 0.390625 -0.75zm8.79541 2.90625q-2.171875 0 -3.53125 -1.328125q-1.359375 -1.34375 -1.359375 -3.546875l0 -0.265625q0 -1.484375 0.5625 -2.640625q0.578125 -1.171875 1.625 -1.796875q1.0625 -0.640625 2.40625 -0.640625q2.03125 0 3.1875 1.28125q1.15625 1.265625 1.15625 3.609375l0 1.0625l-6.265625 0q0.125 0.96875 0.765625 1.5625q0.640625 0.578125 1.625 0.578125q1.515625 0 2.375 -1.109375l1.296875 1.453125q-0.59375 0.84375 -1.609375 1.3125q-1.0 0.46875 -2.234375 0.46875zm-0.296875 -8.09375q-0.78125 0 -1.28125 0.53125q-0.484375 0.53125 -0.609375 1.515625l3.65625 0l0 -0.21875q-0.015625 -0.875 -0.484375 -1.34375q-0.453125 -0.484375 -1.28125 -0.484375zm11.3811035 0.515625q-0.53125 -0.0625 -0.9375 -0.0625q-1.5 0 -1.96875 1.0l0 6.453125l-2.625 0l0 -9.859375l2.484375 0l0.078125 1.171875q0.78125 -1.34375 2.1875 -1.34375q0.4375 0 0.828125 0.109375l-0.046875 2.53125zm5.1250916 4.171875l1.828125 -6.640625l2.75 0l-3.328125 9.859375l-2.515625 0l-3.3125 -9.859375l2.75 0l1.828125 6.640625zm10.153595 3.40625q-2.171875 0 -3.53125 -1.328125q-1.359375 -1.34375 -1.359375 -3.546875l0 -0.265625q0 -1.484375 0.5625 -2.640625q0.578125 -1.171875 1.625 -1.796875q1.0625 -0.640625 2.40625 -0.640625q2.03125 0 3.1875 1.28125q1.15625 1.265625 1.15625 3.609375l0 1.0625l-6.265625 0q0.125 0.96875 0.765625 1.5625q0.640625 0.578125 1.625 0.578125q1.515625 0 2.375 -1.109375l1.296875 1.453125q-0.59375 0.84375 -1.609375 1.3125q-1.0 0.46875 -2.234375 0.46875zm-0.296875 -8.09375q-0.78125 0 -1.28125 0.53125q-0.484375 0.53125 -0.609375 1.515625l3.65625 0l0 -0.21875q-0.015625 -0.875 -0.484375 -1.34375q-0.453125 -0.484375 -1.28125 -0.484375zm11.3811035 0.515625q-0.53125 -0.0625 -0.9375 -0.0625q-1.5 0 -1.96875 1.0l0 6.453125l-2.625 0l0 -9.859375l2.484375 0l0.078125 1.171875q0.78125 -1.34375 2.1875 -1.34375q0.4375 0 0.828125 0.109375l-0.046875 2.53125z" fill-rule="nonzero"/><path fill="#ffd966" d="m45.446194 231.93439l403.65353 0l0 40.91339l-403.65353 0z" fill-rule="evenodd"/><path stroke="#000000" stroke-width="1.0" stroke-linejoin="round" stroke-linecap="butt" d="m45.446194 231.93439l403.65353 0l0 40.91339l-403.65353 0z" fill-rule="evenodd"/><path fill="#000000" d="m234.7309 251.92044q-0.53125 -0.0625 -0.9375 -0.0625q-1.5 0 -1.96875 1.0l0 6.453125l-2.625 0l0 -9.859375l2.484375 0l0.078125 1.171875q0.78125 -1.34375 2.1875 -1.34375q0.4375 0 0.828125 0.109375l-0.046875 2.53125zm7.5547943 7.390625l-2.625 0l0 -10.140625l-3.15625 0.96875l0 -2.140625l5.5 -1.96875l0.28125 0l0 13.28125zm13.234909 -5.484375q0 2.75 -1.140625 4.21875q-1.140625 1.453125 -3.328125 1.453125q-2.171875 0 -3.328125 -1.421875q-1.140625 -1.4375 -1.171875 -4.109375l0 -2.4375q0 -2.78125 1.15625 -4.21875q1.15625 -1.453125 3.3125 -1.453125q2.171875 0 3.3125 1.4375q1.15625 1.421875 1.1875 4.09375l0 2.4375zm-2.625 -2.671875q0 -1.65625 -0.453125 -2.40625q-0.453125 -0.75 -1.40625 -0.75q-0.9375 0 -1.375 0.71875q-0.4375 0.703125 -0.46875 2.234375l0 3.21875q0 1.625 0.4375 2.421875q0.4375 0.78125 1.421875 0.78125q0.96875 0 1.390625 -0.75q0.421875 -0.765625 0.453125 -2.328125l0 -3.140625zm8.094269 4.203125l-0.953125 0.953125l0 3.0l-2.625 0l0 -14.0l2.625 0l0 7.765625l0.515625 -0.65625l2.515625 -2.96875l3.171875 0l-3.5625 4.109375l3.859375 5.75l-3.015625 0l-2.53125 -3.953125z" fill-rule="nonzero"/><path fill="#93c47d" d="m30.91076 477.4147l432.7244 0l0 95.46457l-432.7244 0z" fill-rule="evenodd"/><path stroke="#000000" stroke-width="1.0" stroke-linejoin="round" stroke-linecap="butt" d="m30.91076 477.4147l432.7244 0l0 95.46457l-432.7244 0z" fill-rule="evenodd"/><path fill="#000000" d="m48.582638 501.6003l-4.796875 0l-0.90625 2.734375l-2.90625 0l4.9375 -13.265625l2.53125 0l4.96875 13.265625l-2.90625 0l-0.921875 -2.734375zm-4.046875 -2.21875l3.3125 0l-1.671875 -4.953125l-1.640625 4.953125zm8.552887 -0.046875q0 -2.265625 1.078125 -3.640625q1.078125 -1.390625 2.921875 -1.390625q1.609375 0 2.515625 1.109375l0.109375 -0.9375l2.390625 0l0 9.53125q0 1.296875 -0.59375 2.25q-0.578125 0.953125 -1.65625 1.453125q-1.0625 0.5 -2.484375 0.5q-1.09375 0 -2.125 -0.4375q-1.015625 -0.421875 -1.546875 -1.109375l1.15625 -1.59375q0.984375 1.09375 2.390625 1.09375q1.046875 0 1.625 -0.5625q0.59375 -0.5625 0.59375 -1.578125l0 -0.53125q-0.921875 1.03125 -2.40625 1.03125q-1.765625 0 -2.875 -1.390625q-1.09375 -1.390625 -1.09375 -3.6875l0 -0.109375zm2.640625 0.1875q0 1.34375 0.53125 2.109375q0.546875 0.75 1.484375 0.75q1.203125 0 1.71875 -0.890625l0 -4.15625q-0.53125 -0.890625 -1.703125 -0.890625q-0.953125 0 -1.5 0.78125q-0.53125 0.765625 -0.53125 2.296875zm12.930248 5.0q-2.171875 0 -3.53125 -1.328125q-1.3593712 -1.34375 -1.3593712 -3.546875l0 -0.265625q0 -1.484375 0.5624962 -2.640625q0.578125 -1.171875 1.625 -1.796875q1.0625 -0.640625 2.40625 -0.640625q2.03125 0 3.1875 1.28125q1.15625 1.265625 1.15625 3.609375l0 1.0625l-6.265625 0q0.125 0.96875 0.765625 1.5625q0.640625 0.578125 1.625 0.578125q1.515625 0 2.375 -1.109375l1.296875 1.453125q-0.59375 0.84375 -1.609375 1.3125q-1.0 0.46875 -2.234375 0.46875zm-0.296875 -8.09375q-0.78125 0 -1.28125 0.53125q-0.484375 0.53125 -0.609375 1.515625l3.65625 0l0 -0.21875q-0.015625 -0.875 -0.484375 -1.34375q-0.453125 -0.484375 -1.28125 -0.484375zm8.271713 -1.953125l0.078125 1.140625q1.0625 -1.3125 2.828125 -1.3125q1.578125 0 2.34375 0.921875q0.765625 0.90625 0.78125 2.734375l0 6.375l-2.640625 0l0 -6.296875q0 -0.84375 -0.359375 -1.21875q-0.359375 -0.375 -1.21875 -0.375q-1.109375 0 -1.65625 0.9375l0 6.953125l-2.640625 0l0 -9.859375l2.484375 0zm11.167343 -2.421875l0 2.421875l1.6875 0l0 1.9375l-1.6875 0l0 4.921875q0 0.546875 0.203125 0.78125q0.21875 0.234375 0.8125 0.234375q0.4375 0 0.78125 -0.0625l0 2.0q-0.78125 0.234375 -1.59375 0.234375q-2.78125 0 -2.828125 -2.796875l0 -5.3125l-1.4375 0l0 -1.9375l1.4375 0l0 -2.421875l2.625 0z" fill-rule="nonzero"/><path fill="#ffd966" d="m45.446194 515.1916l403.65353 0l0 40.91339l-403.65353 0z" fill-rule="evenodd"/><path stroke="#000000" stroke-width="1.0" stroke-linejoin="round" stroke-linecap="butt" d="m45.446194 515.1916l403.65353 0l0 40.91339l-403.65353 0z" fill-rule="evenodd"/><path fill="#000000" d="m227.99498 537.72455q0 2.28125 -1.046875 3.65625q-1.03125 1.375 -2.78125 1.375q-1.5 0 -2.421875 -1.046875l0 4.65625l-2.625 0l0 -13.65625l2.4375 0l0.09375 0.96875q0.953125 -1.140625 2.5 -1.140625q1.8125 0 2.828125 1.34375q1.015625 1.34375 1.015625 3.71875l0 0.125zm-2.640625 -0.1875q0 -1.375 -0.484375 -2.109375q-0.484375 -0.75 -1.421875 -0.75q-1.234375 0 -1.703125 0.9375l0 4.03125q0.484375 0.984375 1.71875 0.984375q1.890625 0 1.890625 -3.09375zm10.175125 4.03125q-0.984375 1.1875 -2.703125 1.1875q-1.59375 0 -2.421875 -0.90625q-0.828125 -0.921875 -0.84375 -2.671875l0 -6.46875l2.625 0l0 6.375q0 1.53125 1.40625 1.53125q1.34375 0 1.84375 -0.921875l0 -6.984375l2.640625 0l0 9.859375l-2.484375 0l-0.0625 -1.0zm13.408234 -3.84375q0 2.28125 -1.046875 3.65625q-1.03125 1.375 -2.78125 1.375q-1.5 0 -2.421875 -1.046875l0 4.65625l-2.625 0l0 -13.65625l2.4375 0l0.09375 0.96875q0.953125 -1.140625 2.5 -1.140625q1.8125 0 2.828125 1.34375q1.015625 1.34375 1.015625 3.71875l0 0.125zm-2.640625 -0.1875q0 -1.375 -0.484375 -2.109375q-0.484375 -0.75 -1.421875 -0.75q-1.234375 0 -1.703125 0.9375l0 4.03125q0.484375 0.984375 1.71875 0.984375q1.890625 0 1.890625 -3.09375zm13.14386 0.1875q0 2.28125 -1.046875 3.65625q-1.03125 1.375 -2.7812347 1.375q-1.5 0 -2.421875 -1.046875l0 4.65625l-2.625 0l0 -13.65625l2.4375 0l0.09375 0.96875q0.953125 -1.140625 2.5 -1.140625q1.8124847 0 2.8281097 1.34375q1.015625 1.34375 1.015625 3.71875l0 0.125zm-2.640625 -0.1875q0 -1.375 -0.484375 -2.109375q-0.48435974 -0.75 -1.4218597 -0.75q-1.234375 0 -1.703125 0.9375l0 4.03125q0.484375 0.984375 1.71875 0.984375q1.8906097 0 1.8906097 -3.09375zm8.80014 5.21875q-2.171875 0 -3.53125 -1.328125q-1.359375 -1.34375 -1.359375 -3.546875l0 -0.265625q0 -1.484375 0.5625 -2.640625q0.578125 -1.171875 1.625 -1.796875q1.0625 -0.640625 2.40625 -0.640625q2.03125 0 3.1875 1.28125q1.15625 1.265625 1.15625 3.609375l0 1.0625l-6.265625 0q0.125 0.96875 0.765625 1.5625q0.640625 0.578125 1.625 0.578125q1.515625 0 2.375 -1.109375l1.296875 1.453125q-0.59375 0.84375 -1.609375 1.3125q-1.0 0.46875 -2.234375 0.46875zm-0.296875 -8.09375q-0.78125 0 -1.28125 0.53125q-0.484375 0.53125 -0.609375 1.515625l3.65625 0l0 -0.21875q-0.015625 -0.875 -0.484375 -1.34375q-0.453125 -0.484375 -1.28125 -0.484375zm8.990448 -4.375l0 2.421875l1.6875 0l0 1.9375l-1.6875 0l0 4.921875q0 0.546875 0.203125 0.78125q0.21875 0.234375 0.8125 0.234375q0.4375 0 0.78125 -0.0625l0 2.0q-0.78125 0.234375 -1.59375 0.234375q-2.78125 0 -2.828125 -2.796875l0 -5.3125l-1.4375 0l0 -1.9375l1.4375 0l0 -2.421875l2.625 0z" fill-rule="nonzero"/><path fill="#000000" fill-opacity="0.0" d="m525.08136 30.503937l403.65356 0l0 40.913383l-403.65356 0z" fill-rule="evenodd"/><path fill="#000000" d="m699.8896 55.6775l5.796875 0l0 2.203125l-8.53125 0l0 -13.265625l2.734375 0l0 11.0625zm11.727417 2.390625q-2.171875 0 -3.53125 -1.328125q-1.359375 -1.34375 -1.359375 -3.546875l0 -0.265625q0 -1.484375 0.5625 -2.640625q0.578125 -1.171875 1.625 -1.796875q1.0625 -0.640625 2.40625 -0.640625q2.03125 0 3.1875 1.28125q1.15625 1.265625 1.15625 3.609375l0 1.0625l-6.265625 0q0.125 0.96875 0.765625 1.5625q0.640625 0.578125 1.625 0.578125q1.515625 0 2.375 -1.109375l1.296875 1.453125q-0.59375 0.84375 -1.609375 1.3125q-1.0 0.46875 -2.234375 0.46875zm-0.296875 -8.09375q-0.78125 0 -1.28125 0.53125q-0.484375 0.53125 -0.609375 1.515625l3.65625 0l0 -0.21875q-0.015625 -0.875 -0.484375 -1.34375q-0.453125 -0.484375 -1.28125 -0.484375zm5.4592285 2.90625q0 -2.265625 1.078125 -3.640625q1.078125 -1.390625 2.921875 -1.390625q1.609375 0 2.515625 1.109375l0.109375 -0.9375l2.390625 0l0 9.53125q0 1.296875 -0.59375 2.25q-0.578125 0.953125 -1.65625 1.453125q-1.0625 0.5 -2.484375 0.5q-1.09375 0 -2.125 -0.4375q-1.015625 -0.421875 -1.546875 -1.109375l1.15625 -1.59375q0.984375 1.09375 2.390625 1.09375q1.046875 0 1.625 -0.5625q0.59375 -0.5625 0.59375 -1.578125l0 -0.53125q-0.921875 1.03125 -2.40625 1.03125q-1.765625 0 -2.875 -1.390625q-1.09375 -1.390625 -1.09375 -3.6875l0 -0.109375zm2.640625 0.1875q0 1.34375 0.53125 2.109375q0.546875 0.75 1.484375 0.75q1.203125 0 1.71875 -0.890625l0 -4.15625q-0.53125 -0.890625 -1.703125 -0.890625q-0.953125 0 -1.5 0.78125q-0.53125 0.765625 -0.53125 2.296875zm12.930237 5.0q-2.171875 0 -3.53125 -1.328125q-1.359375 -1.34375 -1.359375 -3.546875l0 -0.265625q0 -1.484375 0.5625 -2.640625q0.578125 -1.171875 1.625 -1.796875q1.0625 -0.640625 2.40625 -0.640625q2.03125 0 3.1875 1.28125q1.15625 1.265625 1.15625 3.609375l0 1.0625l-6.265625 0q0.125 0.96875 0.765625 1.5625q0.640625 0.578125 1.625 0.578125q1.515625 0 2.375 -1.109375l1.296875 1.453125q-0.59375 0.84375 -1.609375 1.3125q-1.0 0.46875 -2.234375 0.46875zm-0.296875 -8.09375q-0.78125 0 -1.28125 0.53125q-0.484375 0.53125 -0.609375 1.515625l3.65625 0l0 -0.21875q-0.015625 -0.875 -0.484375 -1.34375q-0.453125 -0.484375 -1.28125 -0.484375zm8.2717285 -1.953125l0.078125 1.140625q1.0625 -1.3125 2.828125 -1.3125q1.578125 0 2.34375 0.921875q0.765625 0.90625 0.78125 2.734375l0 6.375l-2.640625 0l0 -6.296875q0 -0.84375 -0.359375 -1.21875q-0.359375 -0.375 -1.21875 -0.375q-1.109375 0 -1.65625 0.9375l0 6.953125l-2.640625 0l0 -9.859375l2.484375 0zm7.6048584 4.859375q0 -2.3125 1.03125 -3.671875q1.046875 -1.359375 2.84375 -1.359375q1.4375 0 2.375 1.0625l0 -5.03125l2.640625 0l0 14.0l-2.375 0l-0.125 -1.046875q-0.984375 1.234375 -2.53125 1.234375q-1.75 0 -2.8125 -1.375q-1.046875 -1.375 -1.046875 -3.8125zm2.640625 0.1875q0 1.390625 0.484375 2.125q0.484375 0.734375 1.40625 0.734375q1.21875 0 1.71875 -1.03125l0 -3.890625q-0.5 -1.015625 -1.703125 -1.015625q-1.90625 0 -1.90625 3.078125z" fill-rule="nonzero"/><path fill="#ffd966" d="m525.08136 71.41732l403.65356 0l0 40.91339l-403.65356 0z" fill-rule="evenodd"/><path stroke="#000000" stroke-width="1.0" stroke-linejoin="round" stroke-linecap="butt" d="m525.08136 71.41732l403.65356 0l0 40.91339l-403.65356 0z" fill-rule="evenodd"/><path fill="#000000" d="m679.2835 96.05964l-4.796875 0l-0.90625 2.734375l-2.90625 0l4.9375 -13.265625l2.53125 0l4.96875 13.265625l-2.90625 0l-0.921875 -2.734375zm-4.046875 -2.21875l3.3125 0l-1.671875 -4.953125l-1.640625 4.953125zm11.849731 0.28125l0 4.671875l-2.734375 0l0 -13.265625l5.171875 0q1.5 0 2.625 0.546875q1.140625 0.546875 1.75 1.5625q0.609375 1.0 0.609375 2.28125q0 1.953125 -1.34375 3.078125q-1.328125 1.125 -3.6875 1.125l-2.390625 0zm0 -2.21875l2.4375 0q1.078125 0 1.640625 -0.5q0.578125 -0.515625 0.578125 -1.46875q0 -0.96875 -0.578125 -1.5625q-0.5625 -0.609375 -1.578125 -0.625l-2.5 0l0 4.15625zm19.283691 -4.15625l-4.0625 0l0 11.046875l-2.734375 0l0 -11.046875l-4.015625 0l0 -2.21875l10.8125 0l0 2.21875zm8.390686 6.375l0 4.671875l-2.734375 0l0 -13.265625l5.171875 0q1.5 0 2.625 0.546875q1.140625 0.546875 1.75 1.5625q0.609375 1.0 0.609375 2.28125q0 1.953125 -1.34375 3.078125q-1.328125 1.125 -3.6875 1.125l-2.390625 0zm0 -2.21875l2.4375 0q1.078125 0 1.640625 -0.5q0.578125 -0.515625 0.578125 -1.46875q0 -0.96875 -0.578125 -1.5625q-0.5625 -0.609375 -1.578125 -0.625l-2.5 0l0 4.15625zm14.730225 6.890625q-0.171875 -0.359375 -0.265625 -0.890625q-0.953125 1.078125 -2.484375 1.078125q-1.453125 0 -2.40625 -0.84375q-0.9375 -0.84375 -0.9375 -2.109375q0 -1.578125 1.15625 -2.40625q1.15625 -0.84375 3.359375 -0.84375l1.203125 0l0 -0.578125q0 -0.671875 -0.359375 -1.078125q-0.34375 -0.421875 -1.09375 -0.421875q-0.65625 0 -1.046875 0.328125q-0.375 0.3125 -0.375 0.875l-2.625 0q0 -0.859375 0.515625 -1.578125q0.53125 -0.734375 1.5 -1.140625q0.96875 -0.421875 2.171875 -0.421875q1.8125 0 2.875 0.921875q1.078125 0.90625 1.078125 2.5625l0 4.265625q0.015625 1.40625 0.390625 2.125l0 0.15625l-2.65625 0zm-2.171875 -1.828125q0.578125 0 1.0625 -0.25q0.5 -0.265625 0.734375 -0.703125l0 -1.703125l-0.984375 0q-1.96875 0 -2.09375 1.375l-0.015625 0.15625q0 0.484375 0.34375 0.8125q0.34375 0.3125 0.953125 0.3125zm10.564758 -0.109375q0.734375 0 1.1875 -0.390625q0.453125 -0.40625 0.46875 -1.078125l2.46875 0q0 1.0 -0.546875 1.84375q-0.53125 0.828125 -1.46875 1.296875q-0.9375 0.453125 -2.0625 0.453125q-2.109375 0 -3.34375 -1.34375q-1.21875 -1.34375 -1.21875 -3.71875l0 -0.171875q0 -2.28125 1.21875 -3.625q1.21875 -1.359375 3.328125 -1.359375q1.84375 0 2.953125 1.046875q1.125 1.046875 1.140625 2.796875l-2.46875 0q-0.015625 -0.765625 -0.46875 -1.234375q-0.453125 -0.484375 -1.203125 -0.484375q-0.921875 0 -1.390625 0.671875q-0.46875 0.671875 -0.46875 2.171875l0 0.265625q0 1.53125 0.453125 2.203125q0.46875 0.65625 1.421875 0.65625zm9.213318 -2.015625l-0.953125 0.953125l0 3.0l-2.625 0l0 -14.0l2.625 0l0 7.765625l0.515625 -0.65625l2.515625 -2.96875l3.171875 0l-3.5625 4.109375l3.859375 5.75l-3.015625 0l-2.53125 -3.953125zm12.090759 3.953125q-0.171875 -0.359375 -0.265625 -0.890625q-0.953125 1.078125 -2.484375 1.078125q-1.453125 0 -2.40625 -0.84375q-0.9375 -0.84375 -0.9375 -2.109375q0 -1.578125 1.15625 -2.40625q1.15625 -0.84375 3.359375 -0.84375l1.203125 0l0 -0.578125q0 -0.671875 -0.359375 -1.078125q-0.34375 -0.421875 -1.09375 -0.421875q-0.65625 0 -1.046875 0.328125q-0.375 0.3125 -0.375 0.875l-2.625 0q0 -0.859375 0.515625 -1.578125q0.53125 -0.734375 1.5 -1.140625q0.96875 -0.421875 2.171875 -0.421875q1.8125 0 2.875 0.921875q1.078125 0.90625 1.078125 2.5625l0 4.265625q0.015625 1.40625 0.390625 2.125l0 0.15625l-2.65625 0zm-2.171875 -1.828125q0.578125 0 1.0625 -0.25q0.5 -0.265625 0.734375 -0.703125l0 -1.703125l-0.984375 0q-1.96875 0 -2.09375 1.375l-0.015625 0.15625q0 0.484375 0.34375 0.8125q0.34375 0.3125 0.953125 0.3125zm6.0803833 -3.171875q0 -2.265625 1.078125 -3.640625q1.078125 -1.390625 2.921875 -1.390625q1.609375 0 2.515625 1.109375l0.109375 -0.9375l2.390625 0l0 9.53125q0 1.296875 -0.59375 2.25q-0.578125 0.953125 -1.65625 1.453125q-1.0625 0.5 -2.484375 0.5q-1.09375 0 -2.125 -0.4375q-1.015625 -0.421875 -1.546875 -1.109375l1.15625 -1.59375q0.984375 1.09375 2.390625 1.09375q1.046875 0 1.625 -0.5625q0.59375 -0.5625 0.59375 -1.578125l0 -0.53125q-0.921875 1.03125 -2.40625 1.03125q-1.765625 0 -2.875 -1.390625q-1.09375 -1.390625 -1.09375 -3.6875l0 -0.109375zm2.640625 0.1875q0 1.34375 0.53125 2.109375q0.546875 0.75 1.484375 0.75q1.203125 0 1.71875 -0.890625l0 -4.15625q-0.53125 -0.890625 -1.703125 -0.890625q-0.953125 0 -1.5 0.78125q-0.53125 0.765625 -0.53125 2.296875zm12.930237 5.0q-2.171875 0 -3.53125 -1.328125q-1.359375 -1.34375 -1.359375 -3.546875l0 -0.265625q0 -1.484375 0.5625 -2.640625q0.578125 -1.171875 1.625 -1.796875q1.0625 -0.640625 2.40625 -0.640625q2.03125 0 3.1875 1.28125q1.15625 1.265625 1.15625 3.609375l0 1.0625l-6.265625 0q0.125 0.96875 0.765625 1.5625q0.640625 0.578125 1.625 0.578125q1.515625 0 2.375 -1.109375l1.296875 1.453125q-0.59375 0.84375 -1.609375 1.3125q-1.0 0.46875 -2.234375 0.46875zm-0.296875 -8.09375q-0.78125 0 -1.28125 0.53125q-0.484375 0.53125 -0.609375 1.515625l3.65625 0l0 -0.21875q-0.015625 -0.875 -0.484375 -1.34375q-0.453125 -0.484375 -1.28125 -0.484375z" fill-rule="nonzero"/><path fill="#6d9eeb" d="m525.08136 112.33071l403.65356 0l0 40.913383l-403.65356 0z" fill-rule="evenodd"/><path stroke="#000000" stroke-width="1.0" stroke-linejoin="round" stroke-linecap="butt" d="m525.08136 112.33071l403.65356 0l0 40.913383l-403.65356 0z" fill-rule="evenodd"/><path fill="#ffffff" d="m655.33813 139.7074l0 -13.265625l4.078125 0q1.75 0 3.125 0.796875q1.390625 0.78125 2.15625 2.234375q0.78125 1.453125 0.78125 3.296875l0 0.609375q0 1.859375 -0.765625 3.296875q-0.765625 1.4375 -2.15625 2.234375q-1.375 0.78125 -3.109375 0.796875l-4.109375 0zm2.734375 -11.046875l0 8.84375l1.3125 0q1.609375 0 2.453125 -1.046875q0.84375 -1.046875 0.859375 -2.984375l0 -0.703125q0 -2.03125 -0.84375 -3.0625q-0.828125 -1.046875 -2.4375 -1.046875l-1.34375 0zm8.796631 6.03125q0 -1.46875 0.5625 -2.609375q0.578125 -1.15625 1.640625 -1.78125q1.0625 -0.625 2.453125 -0.625q2.0 0 3.265625 1.21875q1.265625 1.21875 1.40625 3.3125l0.015625 0.671875q0 2.265625 -1.265625 3.640625q-1.265625 1.375 -3.40625 1.375q-2.125 0 -3.40625 -1.359375q-1.265625 -1.375 -1.265625 -3.734375l0 -0.109375zm2.640625 0.1875q0 1.40625 0.53125 2.15625q0.53125 0.734375 1.515625 0.734375q0.953125 0 1.484375 -0.734375q0.546875 -0.734375 0.546875 -2.34375q0 -1.375 -0.546875 -2.125q-0.53125 -0.765625 -1.515625 -0.765625q-0.953125 0 -1.484375 0.75q-0.53125 0.75 -0.53125 2.328125zm12.423767 2.890625q0.734375 0 1.1875 -0.390625q0.453125 -0.40625 0.46875 -1.078125l2.46875 0q0 1.0 -0.546875 1.84375q-0.53125 0.828125 -1.46875 1.296875q-0.9375 0.453125 -2.0625 0.453125q-2.109375 0 -3.34375 -1.34375q-1.21875 -1.34375 -1.21875 -3.71875l0 -0.171875q0 -2.28125 1.21875 -3.625q1.21875 -1.359375 3.328125 -1.359375q1.84375 0 2.953125 1.046875q1.125 1.046875 1.140625 2.796875l-2.46875 0q-0.015625 -0.765625 -0.46875 -1.234375q-0.453125 -0.484375 -1.203125 -0.484375q-0.921875 0 -1.390625 0.671875q-0.46875 0.671875 -0.46875 2.171875l0 0.265625q0 1.53125 0.453125 2.203125q0.46875 0.65625 1.421875 0.65625zm9.213318 -2.015625l-0.953125 0.953125l0 3.0l-2.625 0l0 -14.0l2.625 0l0 7.765625l0.515625 -0.65625l2.515625 -2.96875l3.171875 0l-3.5625 4.109375l3.859375 5.75l-3.015625 0l-2.53125 -3.953125zm10.736633 4.140625q-2.171875 0 -3.53125 -1.328125q-1.359375 -1.34375 -1.359375 -3.546875l0 -0.265625q0 -1.484375 0.5625 -2.640625q0.578125 -1.171875 1.625 -1.796875q1.0625 -0.640625 2.40625 -0.640625q2.03125 0 3.1875 1.28125q1.15625 1.265625 1.15625 3.609375l0 1.0625l-6.265625 0q0.125 0.96875 0.765625 1.5625q0.640625 0.578125 1.625 0.578125q1.515625 0 2.375 -1.109375l1.296875 1.453125q-0.59375 0.84375 -1.609375 1.3125q-1.0 0.46875 -2.234375 0.46875zm-0.296875 -8.09375q-0.78125 0 -1.28125 0.53125q-0.484375 0.53125 -0.609375 1.515625l3.65625 0l0 -0.21875q-0.015625 -0.875 -0.484375 -1.34375q-0.453125 -0.484375 -1.28125 -0.484375zm11.3811035 0.515625q-0.53125 -0.0625 -0.9375 -0.0625q-1.5 0 -1.96875 1.0l0 6.453125l-2.625 0l0 -9.859375l2.484375 0l0.078125 1.171875q0.78125 -1.34375 2.1875 -1.34375q0.4375 0 0.828125 0.109375l-0.046875 2.53125zm16.497498 2.96875q-0.15625 2.140625 -1.578125 3.375q-1.421875 1.234375 -3.75 1.234375q-2.5625 0 -4.03125 -1.71875q-1.453125 -1.71875 -1.453125 -4.71875l0 -0.8125q0 -1.90625 0.671875 -3.359375q0.671875 -1.46875 1.921875 -2.25q1.265625 -0.78125 2.921875 -0.78125q2.296875 0 3.6875 1.234375q1.40625 1.234375 1.625 3.453125l-2.734375 0q-0.09375 -1.28125 -0.71875 -1.859375q-0.609375 -0.578125 -1.859375 -0.578125q-1.375 0 -2.046875 0.984375q-0.671875 0.96875 -0.703125 3.03125l0 1.0q0 2.15625 0.65625 3.15625q0.65625 0.984375 2.0625 0.984375q1.265625 0 1.875 -0.578125q0.625 -0.578125 0.71875 -1.796875l2.734375 0zm1.2067261 -0.59375q0 -1.46875 0.5625 -2.609375q0.578125 -1.15625 1.640625 -1.78125q1.0625 -0.625 2.453125 -0.625q2.0 0 3.265625 1.21875q1.265625 1.21875 1.40625 3.3125l0.015625 0.671875q0 2.265625 -1.265625 3.640625q-1.265625 1.375 -3.40625 1.375q-2.125 0 -3.40625 -1.359375q-1.265625 -1.375 -1.265625 -3.734375l0 -0.109375zm2.640625 0.1875q0 1.40625 0.53125 2.15625q0.53125 0.734375 1.515625 0.734375q0.953125 0 1.484375 -0.734375q0.546875 -0.734375 0.546875 -2.34375q0 -1.375 -0.546875 -2.125q-0.53125 -0.765625 -1.515625 -0.765625q-0.953125 0 -1.484375 0.75q-0.53125 0.75 -0.53125 2.328125zm10.751953 -5.03125l0.078125 1.140625q1.0625 -1.3125 2.828125 -1.3125q1.578125 0 2.34375 0.921875q0.765625 0.90625 0.78125 2.734375l0 6.375l-2.640625 0l0 -6.296875q0 -0.84375 -0.359375 -1.21875q-0.359375 -0.375 -1.21875 -0.375q-1.109375 0 -1.65625 0.9375l0 6.953125l-2.640625 0l0 -9.859375l2.484375 0zm11.167297 -2.421875l0 2.421875l1.6875 0l0 1.9375l-1.6875 0l0 4.921875q0 0.546875 0.203125 0.78125q0.21875 0.234375 0.8125 0.234375q0.4375 0 0.78125 -0.0625l0 2.0q-0.78125 0.234375 -1.59375 0.234375q-2.78125 0 -2.828125 -2.796875l0 -5.3125l-1.4375 0l0 -1.9375l1.4375 0l0 -2.421875l2.625 0zm8.866272 12.28125q-0.171875 -0.359375 -0.265625 -0.890625q-0.953125 1.078125 -2.484375 1.078125q-1.453125 0 -2.40625 -0.84375q-0.9375 -0.84375 -0.9375 -2.109375q0 -1.578125 1.15625 -2.40625q1.15625 -0.84375 3.359375 -0.84375l1.203125 0l0 -0.578125q0 -0.671875 -0.359375 -1.078125q-0.34375 -0.421875 -1.09375 -0.421875q-0.65625 0 -1.046875 0.328125q-0.375 0.3125 -0.375 0.875l-2.625 0q0 -0.859375 0.515625 -1.578125q0.53125 -0.734375 1.5 -1.140625q0.96875 -0.421875 2.171875 -0.421875q1.8125 0 2.875 0.921875q1.078125 0.90625 1.078125 2.5625l0 4.265625q0.015625 1.40625 0.390625 2.125l0 0.15625l-2.65625 0zm-2.171875 -1.828125q0.578125 0 1.0625 -0.25q0.5 -0.265625 0.734375 -0.703125l0 -1.703125l-0.984375 0q-1.96875 0 -2.09375 1.375l-0.015625 0.15625q0 0.484375 0.34375 0.8125q0.34375 0.3125 0.953125 0.3125zm9.252258 1.828125l-2.65625 0l0 -9.859375l2.65625 0l0 9.859375zm-2.796875 -12.40625q0 -0.59375 0.390625 -0.96875q0.390625 -0.390625 1.078125 -0.390625q0.671875 0 1.0625 0.390625q0.40625 0.375 0.40625 0.96875q0 0.59375 -0.40625 0.984375q-0.390625 0.375 -1.0625 0.375q-0.671875 0 -1.078125 -0.375q-0.390625 -0.390625 -0.390625 -0.984375zm7.383972 2.546875l0.078125 1.140625q1.0625 -1.3125 2.828125 -1.3125q1.578125 0 2.34375 0.921875q0.765625 0.90625 0.78125 2.734375l0 6.375l-2.640625 0l0 -6.296875q0 -0.84375 -0.359375 -1.21875q-0.359375 -0.375 -1.21875 -0.375q-1.109375 0 -1.65625 0.9375l0 6.953125l-2.640625 0l0 -9.859375l2.484375 0zm12.557922 10.046875q-2.171875 0 -3.53125 -1.328125q-1.359375 -1.34375 -1.359375 -3.546875l0 -0.265625q0 -1.484375 0.5625 -2.640625q0.578125 -1.171875 1.625 -1.796875q1.0625 -0.640625 2.40625 -0.640625q2.03125 0 3.1875 1.28125q1.15625 1.265625 1.15625 3.609375l0 1.0625l-6.265625 0q0.125 0.96875 0.765625 1.5625q0.640625 0.578125 1.625 0.578125q1.515625 0 2.375 -1.109375l1.296875 1.453125q-0.59375 0.84375 -1.609375 1.3125q-1.0 0.46875 -2.234375 0.46875zm-0.296875 -8.09375q-0.78125 0 -1.28125 0.53125q-0.484375 0.53125 -0.609375 1.515625l3.65625 0l0 -0.21875q-0.015625 -0.875 -0.484375 -1.34375q-0.453125 -0.484375 -1.28125 -0.484375zm11.3811035 0.515625q-0.53125 -0.0625 -0.9375 -0.0625q-1.5 0 -1.96875 1.0l0 6.453125l-2.625 0l0 -9.859375l2.484375 0l0.078125 1.171875q0.78125 -1.34375 2.1875 -1.34375q0.4375 0 0.828125 0.109375l-0.046875 2.53125z" fill-rule="nonzero"/><path fill="#93c47d" d="m525.08136 153.2441l403.65356 0l0 40.91339l-403.65356 0z" fill-rule="evenodd"/><path stroke="#000000" stroke-width="1.0" stroke-linejoin="round" stroke-linecap="butt" d="m525.08136 153.2441l403.65356 0l0 40.91339l-403.65356 0z" fill-rule="evenodd"/><path fill="#000000" d="m620.3699 177.33954l3.015625 -9.984375l3.046875 0l-4.625 13.265625l-2.84375 0l-4.609375 -13.265625l3.03125 0l2.984375 9.984375zm9.916382 3.28125l-2.65625 0l0 -9.859375l2.65625 0l0 9.859375zm-2.796875 -12.40625q0 -0.59375 0.390625 -0.96875q0.390625 -0.390625 1.078125 -0.390625q0.671875 0 1.0625 0.390625q0.40625 0.375 0.40625 0.96875q0 0.59375 -0.40625 0.984375q-0.390625 0.375 -1.0625 0.375q-0.671875 0 -1.078125 -0.375q-0.390625 -0.390625 -0.390625 -0.984375zm10.493347 5.015625q-0.53125 -0.0625 -0.9375 -0.0625q-1.5 0 -1.96875 1.0l0 6.453125l-2.625 0l0 -9.859375l2.484375 0l0.078125 1.171875q0.78125 -1.34375 2.1875 -1.34375q0.4375 0 0.828125 0.109375l-0.046875 2.53125zm4.869873 -4.890625l0 2.421875l1.6875 0l0 1.9375l-1.6875 0l0 4.921875q0 0.546875 0.203125 0.78125q0.21875 0.234375 0.8125 0.234375q0.4375 0 0.78125 -0.0625l0 2.0q-0.78125 0.234375 -1.59375 0.234375q-2.78125 0 -2.828125 -2.796875l0 -5.3125l-1.4375 0l0 -1.9375l1.4375 0l0 -2.421875l2.625 0zm9.069397 11.28125q-0.984375 1.1875 -2.703125 1.1875q-1.59375 0 -2.421875 -0.90625q-0.828125 -0.921875 -0.84375 -2.671875l0 -6.46875l2.625 0l0 6.375q0 1.53125 1.40625 1.53125q1.34375 0 1.84375 -0.921875l0 -6.984375l2.640625 0l0 9.859375l-2.484375 0l-0.0625 -1.0zm10.236389 1.0q-0.171875 -0.359375 -0.265625 -0.890625q-0.953125 1.078125 -2.484375 1.078125q-1.453125 0 -2.40625 -0.84375q-0.9375 -0.84375 -0.9375 -2.109375q0 -1.578125 1.15625 -2.40625q1.15625 -0.84375 3.359375 -0.84375l1.203125 0l0 -0.578125q0 -0.671875 -0.359375 -1.078125q-0.34375 -0.421875 -1.09375 -0.421875q-0.65625 0 -1.046875 0.328125q-0.375 0.3125 -0.375 0.875l-2.625 0q0 -0.859375 0.515625 -1.578125q0.53125 -0.734375 1.5 -1.140625q0.96875 -0.421875 2.171875 -0.421875q1.8125 0 2.875 0.921875q1.078125 0.90625 1.078125 2.5625l0 4.265625q0.015625 1.40625 0.390625 2.125l0 0.15625l-2.65625 0zm-2.171875 -1.828125q0.578125 0 1.0625 -0.25q0.5 -0.265625 0.734375 -0.703125l0 -1.703125l-0.984375 0q-1.96875 0 -2.09375 1.375l-0.015625 0.15625q0 0.484375 0.34375 0.8125q0.34375 0.3125 0.953125 0.3125zm9.252197 1.828125l-2.65625 0l0 -14.0l2.65625 0l0 14.0zm2.3370972 0l0 -13.265625l4.640625 0q2.421875 0 3.65625 0.921875q1.25 0.921875 1.25 2.71875q0 0.96875 -0.5 1.71875q-0.5 0.734375 -1.390625 1.078125q1.015625 0.265625 1.609375 1.046875q0.59375 0.765625 0.59375 1.875q0 1.921875 -1.234375 2.90625q-1.21875 0.984375 -3.46875 1.0l-5.15625 0zm2.734375 -5.78125l0 3.578125l2.34375 0q0.953125 0 1.5 -0.453125q0.546875 -0.453125 0.546875 -1.265625q0 -1.828125 -1.890625 -1.859375l-2.5 0zm0 -1.921875l2.015625 0q2.0625 -0.046875 2.0625 -1.65625q0 -0.890625 -0.53125 -1.28125q-0.515625 -0.40625 -1.640625 -0.40625l-1.90625 0l0 3.34375zm8.578003 2.6875q0 -1.46875 0.5625 -2.609375q0.578125 -1.15625 1.640625 -1.78125q1.0625 -0.625 2.453125 -0.625q2.0 0 3.265625 1.21875q1.265625 1.21875 1.40625 3.3125l0.015625 0.671875q0 2.265625 -1.265625 3.640625q-1.265625 1.375 -3.40625 1.375q-2.125 0 -3.40625 -1.359375q-1.265625 -1.375 -1.265625 -3.734375l0 -0.109375zm2.640625 0.1875q0 1.40625 0.53125 2.15625q0.53125 0.734375 1.515625 0.734375q0.953125 0 1.484375 -0.734375q0.546875 -0.734375 0.546875 -2.34375q0 -1.375 -0.546875 -2.125q-0.53125 -0.765625 -1.515625 -0.765625q-0.953125 0 -1.484375 0.75q-0.53125 0.75 -0.53125 2.328125zm11.888611 -2.09375l1.65625 -2.9375l2.8125 0l-2.796875 4.828125l2.921875 5.03125l-2.828125 0l-1.765625 -3.09375l-1.734375 3.09375l-2.84375 0l2.921875 -5.03125l-2.796875 -4.828125l2.828125 0l1.625 2.9375zm15.450439 3.640625l3.015625 -9.984375l3.046875 0l-4.625 13.265625l-2.84375 0l-4.609375 -13.265625l3.03125 0l2.984375 9.984375zm9.916382 3.28125l-2.65625 0l0 -9.859375l2.65625 0l0 9.859375zm-2.796875 -12.40625q0 -0.59375 0.390625 -0.96875q0.390625 -0.390625 1.078125 -0.390625q0.671875 0 1.0625 0.390625q0.40625 0.375 0.40625 0.96875q0 0.59375 -0.40625 0.984375q-0.390625 0.375 -1.0625 0.375q-0.671875 0 -1.078125 -0.375q-0.390625 -0.390625 -0.390625 -0.984375zm10.493347 5.015625q-0.53125 -0.0625 -0.9375 -0.0625q-1.5 0 -1.96875 1.0l0 6.453125l-2.625 0l0 -9.859375l2.484375 0l0.078125 1.171875q0.78125 -1.34375 2.1875 -1.34375q0.4375 0 0.828125 0.109375l-0.046875 2.53125zm4.869873 -4.890625l0 2.421875l1.6875 0l0 1.9375l-1.6875 0l0 4.921875q0 0.546875 0.203125 0.78125q0.21875 0.234375 0.8125 0.234375q0.4375 0 0.78125 -0.0625l0 2.0q-0.78125 0.234375 -1.59375 0.234375q-2.78125 0 -2.828125 -2.796875l0 -5.3125l-1.4375 0l0 -1.9375l1.4375 0l0 -2.421875l2.625 0zm9.069397 11.28125q-0.984375 1.1875 -2.703125 1.1875q-1.59375 0 -2.421875 -0.90625q-0.828125 -0.921875 -0.84375 -2.671875l0 -6.46875l2.625 0l0 6.375q0 1.53125 1.40625 1.53125q1.34375 0 1.84375 -0.921875l0 -6.984375l2.640625 0l0 9.859375l-2.484375 0l-0.0625 -1.0zm10.236389 1.0q-0.171875 -0.359375 -0.265625 -0.890625q-0.953125 1.078125 -2.484375 1.078125q-1.453125 0 -2.40625 -0.84375q-0.9375 -0.84375 -0.9375 -2.109375q0 -1.578125 1.15625 -2.40625q1.15625 -0.84375 3.359375 -0.84375l1.203125 0l0 -0.578125q0 -0.671875 -0.359375 -1.078125q-0.34375 -0.421875 -1.09375 -0.421875q-0.65625 0 -1.046875 0.328125q-0.375 0.3125 -0.375 0.875l-2.625 0q0 -0.859375 0.515625 -1.578125q0.53125 -0.734375 1.5 -1.140625q0.96875 -0.421875 2.171875 -0.421875q1.8125 0 2.875 0.921875q1.078125 0.90625 1.078125 2.5625l0 4.265625q0.015625 1.40625 0.390625 2.125l0 0.15625l-2.65625 0zm-2.171875 -1.828125q0.578125 0 1.0625 -0.25q0.5 -0.265625 0.734375 -0.703125l0 -1.703125l-0.984375 0q-1.96875 0 -2.09375 1.375l-0.015625 0.15625q0 0.484375 0.34375 0.8125q0.34375 0.3125 0.953125 0.3125zm9.252197 1.828125l-2.65625 0l0 -14.0l2.65625 0l0 14.0zm10.545471 -13.265625l3.40625 9.625l3.390625 -9.625l3.59375 0l0 13.265625l-2.75 0l0 -3.625l0.28125 -6.265625l-3.578125 9.890625l-1.875 0l-3.578125 -9.875l0.28125 6.25l0 3.625l-2.734375 0l0 -13.265625l3.5625 0zm18.311157 13.265625q-0.171875 -0.359375 -0.265625 -0.890625q-0.953125 1.078125 -2.484375 1.078125q-1.453125 0 -2.40625 -0.84375q-0.9375 -0.84375 -0.9375 -2.109375q0 -1.578125 1.15625 -2.40625q1.15625 -0.84375 3.359375 -0.84375l1.203125 0l0 -0.578125q0 -0.671875 -0.359375 -1.078125q-0.34375 -0.421875 -1.09375 -0.421875q-0.65625 0 -1.046875 0.328125q-0.375 0.3125 -0.375 0.875l-2.625 0q0 -0.859375 0.515625 -1.578125q0.53125 -0.734375 1.5 -1.140625q0.96875 -0.421875 2.171875 -0.421875q1.8125 0 2.875 0.921875q1.078125 0.90625 1.078125 2.5625l0 4.265625q0.015625 1.40625 0.390625 2.125l0 0.15625l-2.65625 0zm-2.171875 -1.828125q0.578125 0 1.0625 -0.25q0.5 -0.265625 0.734375 -0.703125l0 -1.703125l-0.984375 0q-1.96875 0 -2.09375 1.375l-0.015625 0.15625q0 0.484375 0.34375 0.8125q0.34375 0.3125 0.953125 0.3125zm10.564758 -0.109375q0.734375 0 1.1875 -0.390625q0.453125 -0.40625 0.46875 -1.078125l2.46875 0q0 1.0 -0.546875 1.84375q-0.53125 0.828125 -1.46875 1.296875q-0.9375 0.453125 -2.0625 0.453125q-2.109375 0 -3.34375 -1.34375q-1.21875 -1.34375 -1.21875 -3.71875l0 -0.171875q0 -2.28125 1.21875 -3.625q1.21875 -1.359375 3.328125 -1.359375q1.84375 0 2.953125 1.046875q1.125 1.046875 1.140625 2.796875l-2.46875 0q-0.015625 -0.765625 -0.46875 -1.234375q-0.453125 -0.484375 -1.203125 -0.484375q-0.921875 0 -1.390625 0.671875q-0.46875 0.671875 -0.46875 2.171875l0 0.265625q0 1.53125 0.453125 2.203125q0.46875 0.65625 1.421875 0.65625zm8.197693 -6.84375q1.046875 -1.25 2.640625 -1.25q3.203125 0 3.25 3.71875l0 6.3125l-2.640625 0l0 -6.234375q0 -0.859375 -0.359375 -1.25q-0.359375 -0.40625 -1.21875 -0.40625q-1.15625 0 -1.671875 0.890625l0 7.0l-2.625 0l0 -14.0l2.625 0l0 5.21875zm10.658203 8.78125l-2.65625 0l0 -9.859375l2.65625 0l0 9.859375zm-2.796875 -12.40625q0 -0.59375 0.390625 -0.96875q0.390625 -0.390625 1.078125 -0.390625q0.671875 0 1.0625 0.390625q0.40625 0.375 0.40625 0.96875q0 0.59375 -0.40625 0.984375q-0.390625 0.375 -1.0625 0.375q-0.671875 0 -1.078125 -0.375q-0.390625 -0.390625 -0.390625 -0.984375zm7.383972 2.546875l0.078125 1.140625q1.0625 -1.3125 2.828125 -1.3125q1.578125 0 2.34375 0.921875q0.765625 0.90625 0.78125 2.734375l0 6.375l-2.640625 0l0 -6.296875q0 -0.84375 -0.359375 -1.21875q-0.359375 -0.375 -1.21875 -0.375q-1.109375 0 -1.65625 0.9375l0 6.953125l-2.640625 0l0 -9.859375l2.484375 0zm12.557983 10.046875q-2.171875 0 -3.53125 -1.328125q-1.359375 -1.34375 -1.359375 -3.546875l0 -0.265625q0 -1.484375 0.5625 -2.640625q0.578125 -1.171875 1.625 -1.796875q1.0625 -0.640625 2.40625 -0.640625q2.03125 0 3.1875 1.28125q1.15625 1.265625 1.15625 3.609375l0 1.0625l-6.265625 0q0.125 0.96875 0.765625 1.5625q0.640625 0.578125 1.625 0.578125q1.515625 0 2.375 -1.109375l1.296875 1.453125q-0.59375 0.84375 -1.609375 1.3125q-1.0 0.46875 -2.234375 0.46875zm-0.296875 -8.09375q-0.78125 0 -1.28125 0.53125q-0.484375 0.53125 -0.609375 1.515625l3.65625 0l0 -0.21875q-0.015625 -0.875 -0.484375 -1.34375q-0.453125 -0.484375 -1.28125 -0.484375z" fill-rule="nonzero"/></g></svg>